<mxfile host="app.diagrams.net" agent="Mozilla/5.0 (Windows NT 10.0; Win64; x64) AppleWebKit/537.36 (KHTML, like Gecko) Chrome/140.0.0.0 Safari/537.36" version="28.2.8">
  <diagram id="prtHgNgQTEPvFCAcTncT" name="Page-1">
    <mxGraphModel dx="2253" dy="751" grid="1" gridSize="10" guides="1" tooltips="1" connect="1" arrows="1" fold="1" page="1" pageScale="1" pageWidth="827" pageHeight="1169" math="0" shadow="0">
      <root>
        <mxCell id="0" />
        <mxCell id="1" parent="0" />
        <mxCell id="JUUDRVt-LdXzEg9T9BQQ-7" value="数据预处理" style="swimlane;whiteSpace=wrap;html=1;fillColor=#FF760E;strokeColor=#b85450;rounded=0;shadow=0;glass=0;" vertex="1" parent="1">
          <mxGeometry x="-230" y="120" width="290" height="430" as="geometry" />
        </mxCell>
        <mxCell id="JUUDRVt-LdXzEg9T9BQQ-9" value="" style="rounded=0;whiteSpace=wrap;html=1;" vertex="1" parent="JUUDRVt-LdXzEg9T9BQQ-7">
          <mxGeometry x="20" y="60" width="240" height="60" as="geometry" />
        </mxCell>
      </root>
    </mxGraphModel>
  </diagram>
</mxfile>
